<svg width="340" height="340" viewBox="0 0 340 340" fill="none" xmlns="http://www.w3.org/2000/svg">
<path d="M244.618 146.529C248.587 147.852 248.859 149.316 250.77 152.979C251.376 154.125 251.981 155.272 252.605 156.453C253.255 157.708 253.905 158.962 254.556 160.217C255.231 161.504 255.908 162.79 256.587 164.076C257.617 166.03 258.646 167.984 259.672 169.94C262.605 175.529 265.631 181.065 268.681 186.592C273.818 195.945 278.721 205.413 283.605 214.9C287.402 222.252 291.351 229.482 295.467 236.659C297.551 240.356 299.443 244.129 301.309 247.939C304.146 253.674 307.092 259.334 310.153 264.951C310.526 265.639 310.9 266.327 311.284 267.035C312.806 269.839 314.329 272.642 315.87 275.435C317.017 277.518 318.149 279.608 319.278 281.701C319.63 282.33 319.982 282.959 320.345 283.608C322.683 287.984 322.683 287.984 322.327 290.956C322.093 291.475 321.859 291.994 321.618 292.529C300.457 293.516 284.791 292.055 268.408 277.576C262.753 272.183 259.179 266.852 255.806 259.842C254.78 257.797 253.753 255.752 252.724 253.709C252.21 252.679 251.696 251.648 251.166 250.587C249.221 246.745 247.182 242.96 245.109 239.185C244.108 237.36 243.12 235.527 242.145 233.688C239.725 229.156 237.226 224.89 234.196 220.736C225.532 208.238 224.371 196.547 224.181 181.717C224.154 180.788 224.127 179.859 224.099 178.901C223.772 163.946 223.772 163.946 228.01 158.397C230.777 156.117 233.518 154.318 236.618 152.529C238.139 151.347 239.643 150.143 241.118 148.904C242.962 147.428 242.962 147.428 244.618 146.529Z" fill="#22D3EE"/>
<path d="M219.619 171.529C219.619 200.899 219.619 230.269 219.619 260.529C210.709 260.529 201.799 260.529 192.619 260.529C192.21 251.497 191.881 242.471 191.686 233.431C191.592 229.232 191.466 225.04 191.261 220.844C189.971 193.803 189.971 193.803 194.331 186.767C198.39 182.511 203.017 179.886 208.379 177.576C210.671 176.505 212.553 175.253 214.579 173.745C217.619 171.529 217.619 171.529 219.619 171.529Z" fill="#22D3EE"/>
<path d="M175.617 201.529C176.607 201.859 177.597 202.189 178.617 202.529C178.617 221.669 178.617 240.809 178.617 260.529C170.037 260.529 161.457 260.529 152.617 260.529C152.617 245.349 152.617 230.169 152.617 214.529C163.555 208.592 163.555 208.592 167.008 206.721C167.898 206.236 168.789 205.751 169.707 205.252C170.623 204.754 171.54 204.257 172.484 203.744C174.533 202.702 174.533 202.702 175.617 201.529Z" fill="#22D3EE"/>
<path d="M139.617 224.529C139.617 236.409 139.617 248.289 139.617 260.529C131.037 260.529 122.457 260.529 113.617 260.529C113.617 251.619 113.617 242.709 113.617 233.529C117.35 232.044 121.083 230.559 124.93 229.029C126.103 228.559 127.277 228.09 128.486 227.605C129.412 227.24 130.338 226.875 131.293 226.498C132.241 226.121 133.189 225.744 134.165 225.355C136.617 224.529 136.617 224.529 139.617 224.529Z" fill="#22D3EE"/>
<path d="M91.7721 242.213C90.9872 243.785 90.206 245.36 89.4293 246.937C78.0174 269.997 78.0177 269.998 69.6159 277.53L67.9284 279.229C55.0703 291.5 38.5852 292.938 21.7877 292.636C20.3973 292.603 19.0062 292.568 17.6159 292.53C15.781 286.684 18.3767 283.168 21.0651 277.995C21.5414 277.111 21.541 277.111 22.027 276.209C22.9833 274.418 23.8918 272.608 24.7995 270.792C25.6026 269.283 26.2827 268.01 26.8756 266.928L35.528 261.201L92.5944 240.572C92.3231 241.114 92.0516 241.655 91.7721 242.213ZM184.177 47C189.795 47.0594 193.31 47.5666 197.616 51.5303C199.176 53.8616 200.441 55.9946 201.682 58.4795C202.217 59.502 202.216 59.5026 202.761 60.5459C203.915 62.7623 205.048 64.9895 206.178 67.2178C206.969 68.7517 207.761 70.2857 208.554 71.8184C210.151 74.9074 211.741 78.0005 213.326 81.0957C215.407 85.1454 217.55 89.1591 219.717 93.1631C220.328 94.3002 220.937 95.4378 221.566 96.6094C222.7 98.7196 223.842 100.826 224.995 102.926C225.741 104.333 225.741 104.333 226.503 105.769C227.155 106.975 227.155 106.976 227.821 108.207C228.498 110.187 228.621 111.506 228.321 113.055L217.227 126.612C216.837 127.013 216.447 127.414 216.057 127.815C215.14 128.742 215.139 128.742 214.204 129.687C213.128 130.936 212.327 132.139 211.615 133.471L187.129 163.396L214.541 137.492L214.616 137.53L217.108 135.222C218.235 134.179 219.363 133.136 220.491 132.093C221.384 131.266 221.384 131.265 222.296 130.422C225.66 127.314 229.055 124.247 232.491 121.218C237.03 117.152 241.362 112.892 245.678 108.593C246.346 107.929 247.015 107.266 247.703 106.582C248.325 105.958 248.948 105.333 249.589 104.69C250.148 104.13 250.707 103.569 251.284 102.991C252.719 101.55 252.72 101.549 253.616 99.5303L251.553 98.7803C248.047 97.2884 244.899 95.4618 241.616 93.5303V91.5303C250.237 88.5422 258.869 85.8561 267.678 83.4873C274.138 81.7242 280.466 79.6392 286.779 77.4092C290.285 76.1937 292.861 75.5303 296.616 75.5303C295.342 82.0616 293.96 88.5571 292.452 95.0381C292.156 96.3152 292.156 96.3154 291.855 97.6182C291.235 100.297 290.613 102.977 289.991 105.655C289.566 107.489 289.142 109.322 288.717 111.155C287.685 115.614 286.651 120.072 285.616 124.53C281.616 124.53 281.615 124.53 279.038 122.343L276.366 119.53L273.663 116.718L271.616 114.53C265.324 117.398 260.575 122.507 255.803 127.405C251.987 131.274 247.887 134.66 243.651 138.058C240.941 140.266 238.298 142.528 235.666 144.827C228.297 151.25 220.639 157.168 212.759 162.948C210.557 164.573 208.37 166.22 206.186 167.87C194.034 177.008 181.466 185.408 168.616 193.53C167.926 193.967 167.235 194.403 166.524 194.853C144.065 208.942 119.885 221.757 95.2399 231.571C94.1976 232.06 93.7064 232.293 93.3786 232.846L40.1491 252.088C38.9823 252.234 37.8066 252.381 36.6159 252.53C37.9448 248.235 39.6004 244.363 41.6706 240.374C41.9679 239.799 42.2646 239.223 42.5709 238.631C43.5394 236.761 44.5152 234.896 45.4909 233.03C46.1725 231.719 46.8534 230.408 47.5348 229.097C51.9611 220.6 56.5003 212.171 61.1247 203.78C65.074 196.591 68.8593 189.322 72.6159 182.03C76.8307 173.849 81.1103 165.715 85.5534 157.655C90.5612 148.568 95.3421 139.374 100.084 130.146C104.614 121.336 109.264 112.604 114.05 103.93C117.928 96.8693 121.641 89.7285 125.322 82.5645C134.518 64.6729 134.518 64.6728 138.803 56.9053C139.141 56.279 139.479 55.6521 139.827 55.0068C142.626 50.0209 145.214 47.1672 151.105 47.126C151.986 47.1133 152.868 47.101 153.776 47.0879C154.721 47.0908 155.666 47.0937 156.639 47.0967C157.618 47.0914 158.597 47.0865 159.605 47.0811C161.674 47.0746 163.745 47.0755 165.814 47.084C168.972 47.0925 172.13 47.064 175.288 47.0322C177.301 47.0306 179.314 47.0312 181.327 47.0342C182.267 47.0229 183.208 47.0116 184.177 47Z" fill="#22D3EE"/>
<path d="M92.5798 241C92.3014 241.555 92.0231 242.111 91.7363 242.683C90.9514 244.256 90.1708 245.83 89.394 247.407C77.9819 270.468 77.9819 270.468 69.5798 278C68.7445 278.841 68.7445 278.841 67.8923 279.699C55.0341 291.97 38.5494 293.408 21.7517 293.105C20.361 293.072 18.9703 293.038 17.5798 293C15.3494 285.308 20.0374 278.5 23.4362 271.75C28.4058 262.879 34.1898 259.113 43.8224 256.19C48.2554 254.942 52.7138 253.849 57.2065 252.834C61.8852 251.677 66.162 249.893 70.5798 248C73.8801 246.717 77.1979 245.483 80.5173 244.25C81.3533 243.934 82.1892 243.618 83.0505 243.293C83.8529 242.995 84.6554 242.697 85.4821 242.391C86.1988 242.123 86.9154 241.855 87.6538 241.579C89.5798 241 89.5798 241 92.5798 241Z" fill="#22D3EE"/>
<path d="M297 75C295.726 81.5314 294.344 88.0268 292.836 94.5078C292.639 95.3593 292.442 96.2108 292.239 97.0881C291.619 99.7674 290.997 102.446 290.375 105.125C289.95 106.958 289.526 108.792 289.102 110.625C288.069 115.084 287.035 119.542 286 124C282 124 282 124 279.422 121.812C278.54 120.884 277.658 119.956 276.75 119C275.858 118.072 274.966 117.144 274.047 116.188C273.034 115.105 273.034 115.105 272 114C265.708 116.868 260.959 121.976 256.188 126.875C252.371 130.743 248.272 134.13 244.035 137.527C241.325 139.736 238.683 141.998 236.051 144.297C228.682 150.721 221.023 156.638 213.144 162.418C210.941 164.044 208.754 165.69 206.57 167.34C194.418 176.478 181.851 184.877 169 193C168.31 193.437 167.62 193.873 166.909 194.323C140.593 210.831 112.419 224.435 83.6418 236.043C77.6141 238.475 71.7749 241.019 66 244C64.2627 244.799 62.5145 245.575 60.75 246.312C59.9405 246.659 59.1309 247.006 58.2969 247.363C55.7145 248.079 54.5206 247.733 52 247C52.5501 246.726 53.1002 246.451 53.667 246.168C69.625 238.152 84.8301 229.217 100.009 219.84C103.609 217.626 107.238 215.464 110.875 213.312C125.65 204.458 140.104 195.178 154 185C155.775 183.732 157.554 182.47 159.333 181.209C171.291 172.723 182.818 163.812 194.15 154.513C195.787 153.174 197.432 151.846 199.078 150.52C204.715 145.97 210.125 141.232 215.457 136.328C217.571 134.393 219.707 132.498 221.875 130.625C230.437 123.159 238.701 115.39 246.75 107.375C247.359 106.771 247.967 106.167 248.594 105.545C251.672 102.557 251.672 102.557 254 99C253.319 98.7525 252.639 98.505 251.938 98.25C248.431 96.758 245.284 94.9316 242 93C242 92.34 242 91.68 242 91C250.621 88.0118 259.252 85.3264 268.062 82.9575C274.522 81.1944 280.85 79.1092 287.163 76.8792C290.669 75.6635 293.245 75 297 75Z" fill="#22D3EE"/>
<rect x="239.273" y="206.574" width="57.3314" height="10.8934" transform="rotate(61.4172 239.273 206.574)" fill="#22D3EE"/>
</svg>
